<svg width="645" height="91" viewBox="0 0 645 91" fill="none" xmlns="http://www.w3.org/2000/svg">
<path d="M202.46 59.5L197.07 64.89V17.5H208.97V70H125.39V17.5H137.29V64.89L131.9 59.5H165.43L161.23 64.89V17.5H173.13V64.89L168.58 59.5H202.46ZM221.767 70V30.17H233.457V60.55L230.027 59.36L253.757 30.17H266.497L232.267 70H221.767ZM254.317 70L242.417 50.47L251.027 43.82L267.687 70H254.317ZM309.726 70L308.046 55.44L309.936 50.12L308.046 44.87L309.726 30.17H321.836L319.526 50.12L321.836 70H309.726ZM312.806 50.12C312.059 54.32 310.682 58.0067 308.676 61.18C306.716 64.3067 304.219 66.7333 301.186 68.46C298.199 70.1867 294.839 71.05 291.106 71.05C287.232 71.05 283.802 70.1867 280.816 68.46C277.829 66.6867 275.496 64.2367 273.816 61.11C272.182 57.9367 271.366 54.2733 271.366 50.12C271.366 45.92 272.182 42.2567 273.816 39.13C275.496 35.9567 277.829 33.5067 280.816 31.78C283.802 30.0067 287.232 29.12 291.106 29.12C294.839 29.12 298.199 29.9833 301.186 31.71C304.219 33.4367 306.739 35.8867 308.746 39.06C310.752 42.1867 312.106 45.8733 312.806 50.12ZM283.196 50.12C283.196 52.4533 283.662 54.5067 284.596 56.28C285.576 58.0533 286.906 59.4533 288.586 60.48C290.266 61.46 292.202 61.95 294.396 61.95C296.589 61.95 298.642 61.46 300.556 60.48C302.516 59.4533 304.242 58.0533 305.736 56.28C307.229 54.5067 308.396 52.4533 309.236 50.12C308.396 47.7867 307.229 45.7333 305.736 43.96C304.242 42.14 302.516 40.74 300.556 39.76C298.642 38.7333 296.589 38.22 294.396 38.22C292.202 38.22 290.266 38.7333 288.586 39.76C286.906 40.74 285.576 42.14 284.596 43.96C283.662 45.7333 283.196 47.7867 283.196 50.12ZM333.152 30.17H344.772V70H333.152V30.17ZM366.542 30.17H378.162V70H366.542V30.17ZM339.802 45.29H371.092V54.11H339.802V45.29ZM444.561 61.18V79.8H434.411V70H397.171V79.8H387.021V61.18H398.151L400.741 61.39H429.721L432.031 61.18H444.561ZM395.631 30.17H437.211V67.34H425.521V33.53L430.911 38.92H401.441L406.131 34.72C406.551 36.7267 406.808 38.64 406.901 40.46C406.994 42.2333 407.041 43.89 407.041 45.43C407.041 52.0567 406.038 57.2367 404.031 60.97C402.024 64.6567 399.201 66.5 395.561 66.5L390.801 62.51C394.534 59.8033 396.401 53.34 396.401 43.12C396.401 41.1133 396.331 39.0367 396.191 36.89C396.051 34.6967 395.864 32.4567 395.631 30.17ZM489.894 70L488.214 55.44L490.104 50.12L488.214 44.87L489.894 30.17H502.004L499.694 50.12L502.004 70H489.894ZM492.974 50.12C492.227 54.32 490.85 58.0067 488.844 61.18C486.884 64.3067 484.387 66.7333 481.354 68.46C478.367 70.1867 475.007 71.05 471.274 71.05C467.4 71.05 463.97 70.1867 460.984 68.46C457.997 66.6867 455.664 64.2367 453.984 61.11C452.35 57.9367 451.534 54.2733 451.534 50.12C451.534 45.92 452.35 42.2567 453.984 39.13C455.664 35.9567 457.997 33.5067 460.984 31.78C463.97 30.0067 467.4 29.12 471.274 29.12C475.007 29.12 478.367 29.9833 481.354 31.71C484.387 33.4367 486.907 35.8867 488.914 39.06C490.92 42.1867 492.274 45.8733 492.974 50.12ZM463.364 50.12C463.364 52.4533 463.83 54.5067 464.764 56.28C465.744 58.0533 467.074 59.4533 468.754 60.48C470.434 61.46 472.37 61.95 474.564 61.95C476.757 61.95 478.81 61.46 480.724 60.48C482.684 59.4533 484.41 58.0533 485.904 56.28C487.397 54.5067 488.564 52.4533 489.404 50.12C488.564 47.7867 487.397 45.7333 485.904 43.96C484.41 42.14 482.684 40.74 480.724 39.76C478.81 38.7333 476.757 38.22 474.564 38.22C472.37 38.22 470.434 38.7333 468.754 39.76C467.074 40.74 465.744 42.14 464.764 43.96C463.83 45.7333 463.364 47.7867 463.364 50.12ZM520.18 30.17H561.34V70H549.65V33.67L555.04 38.99H525.99L531.03 34.65C531.263 37.4967 531.45 40.1333 531.59 42.56C531.777 44.94 531.87 47.0867 531.87 49C531.87 56.6533 530.727 62.2067 528.44 65.66C526.2 69.1133 522.56 70.84 517.52 70.84C516.12 70.84 514.767 70.6767 513.46 70.35C512.2 70.07 510.963 69.58 509.75 68.88V60.41C510.59 60.7367 511.407 60.9933 512.2 61.18C513.04 61.32 513.81 61.39 514.51 61.39C516.89 61.39 518.593 60.3167 519.62 58.17C520.693 55.9767 521.23 52.3833 521.23 47.39C521.23 45.15 521.137 42.5833 520.95 39.69C520.81 36.7967 520.553 33.6233 520.18 30.17ZM573.627 70V30.17H585.247V66.99L581.467 61.6H597.007C599.153 61.6 600.81 61.0867 601.977 60.06C603.143 58.9867 603.727 57.54 603.727 55.72C603.727 53.8067 603.143 52.3367 601.977 51.31C600.81 50.2367 599.153 49.7 597.007 49.7H581.537V41.65H598.757C602.163 41.65 605.103 42.2567 607.577 43.47C610.097 44.6367 612.057 46.2933 613.457 48.44C614.857 50.54 615.557 53.0133 615.557 55.86C615.557 58.66 614.857 61.1333 613.457 63.28C612.057 65.4267 610.12 67.0833 607.647 68.25C605.173 69.4167 602.257 70 598.897 70H573.627Z" fill="#707070"/>
<path d="M85.1836 69.7998H28.4893L0 16.4072H30.0566L58.4443 69.6084L45.2324 16.4072H71.9238L85.1836 69.7998ZM111.028 69.7998H85.3457V16.4072H111.028V69.7998Z" fill="#C9C5D0"/>
</svg>
